<svg xmlns="http://www.w3.org/2000/svg" width="860" height="320" viewBox="0 0 860 320"><g transform="translate(168,158) scale(0.86) translate(-256,-256)"><path d="M96,256 Q256,150 416,256 Q256,362 96,256 Z" fill="none" stroke="#14161F" stroke-width="13" stroke-linejoin="round"/>
<ellipse cx="210" cy="224" rx="50" ry="29" fill="none" stroke="#14161F" stroke-width="7" transform="rotate(-30 210 224)"/>
<ellipse cx="302" cy="224" rx="50" ry="29" fill="none" stroke="#14161F" stroke-width="7" transform="rotate(30 302 224)"/>
<path d="M249,210 Q233,182 224,168" fill="none" stroke="#14161F" stroke-width="6" stroke-linecap="round"/>
<circle cx="224" cy="168" r="5.5" fill="#14161F"/>
<path d="M263,210 Q279,182 288,168" fill="none" stroke="#14161F" stroke-width="6" stroke-linecap="round"/>
<circle cx="288" cy="168" r="5.5" fill="#14161F"/>
<rect x="206" y="204" width="100" height="128" rx="50" fill="none" stroke="#14161F" stroke-width="9"/>
<line x1="214" y1="240" x2="298" y2="240" stroke="#14161F" stroke-width="9" stroke-linecap="round"/>
<line x1="216" y1="276" x2="296" y2="276" stroke="#14161F" stroke-width="9" stroke-linecap="round"/>
<line x1="220" y1="306" x2="292" y2="306" stroke="#14161F" stroke-width="9" stroke-linecap="round"/>
<line x1="256" y1="324" x2="256" y2="346" stroke="#14161F" stroke-width="8" stroke-linecap="round"/></g>
<text x="360" y="170" font-family="'SF Pro Display','Helvetica Neue',Helvetica,Arial,'Liberation Sans','DejaVu Sans',sans-serif" font-size="104" font-weight="600" style="letter-spacing:1px"><tspan fill="#E89B12">Bee</tspan><tspan fill="#1E2230">Ur</tspan><tspan fill="#E89B12">Ei</tspan></text>
<text x="362" y="224" font-family="'SF Pro Display','Helvetica Neue',Helvetica,Arial,'Liberation Sans','DejaVu Sans',sans-serif" font-size="34" font-weight="400" fill="#5A6577">Be your eyes</text></svg>