<svg xmlns="http://www.w3.org/2000/svg" width="512" height="512" viewBox="0 0 512 512"><defs><clipPath id="beeBody"><rect x="206" y="204" width="100" height="128" rx="50"/></clipPath></defs><circle cx="256" cy="266" r="158" fill="#FFC42E" opacity="0.05"/>
<circle cx="256" cy="266" r="124" fill="#FFC42E" opacity="0.05"/>
<circle cx="256" cy="266" r="92" fill="#FFC42E" opacity="0.06"/>
<path d="M72,256 Q256,130 440,256 Q256,382 72,256 Z" fill="none" stroke="#FFC42E" stroke-width="5" opacity="0.22"/>
<path d="M96,256 Q256,150 416,256 Q256,362 96,256 Z" fill="#FFC42E" fill-opacity="0.05" stroke="#FFC42E" stroke-width="14" stroke-linejoin="round"/>
<ellipse cx="210" cy="224" rx="52" ry="30" fill="#FFFFFF" fill-opacity="0.9" stroke="#FFC42E" stroke-opacity="0.3" stroke-width="3" transform="rotate(-30 210 224)"/>
<ellipse cx="302" cy="224" rx="52" ry="30" fill="#FFFFFF" fill-opacity="0.9" stroke="#FFC42E" stroke-opacity="0.3" stroke-width="3" transform="rotate(30 302 224)"/>
<path d="M249,210 Q233,182 224,168" fill="none" stroke="#FFC42E" stroke-width="6" stroke-linecap="round"/>
<circle cx="224" cy="168" r="6" fill="#FFC42E"/>
<path d="M263,210 Q279,182 288,168" fill="none" stroke="#FFC42E" stroke-width="6" stroke-linecap="round"/>
<circle cx="288" cy="168" r="6" fill="#FFC42E"/>
<g clip-path="url(#beeBody)">
<rect x="206" y="204" width="100" height="128" fill="#FFC42E"/>
<ellipse cx="236" cy="250" rx="40" ry="50" fill="#FFD874" opacity="0.4"/>
<rect x="200" y="204" width="112" height="36" fill="#14161F"/>
<rect x="196" y="262" width="120" height="20" fill="#14161F"/>
<rect x="196" y="298" width="120" height="20" fill="#14161F"/>
</g>
<path d="M256,346 L246,326 L266,326 Z" fill="#14161F"/></svg>